# xmcd
#
# Track frame offsets:
#	150
#	15978
#	35144
#	49874
#	65840
#	81614
#	100131
#	116977
#	134933
#	150557
#	168922
#
# Disc length: 2481 seconds
#
# Revision: 1
# Processed by: cddbd v1.5.2PL0 Copyright (c) Steve Scherf et al.
# Submitted via: audiograbber 1.83.01
#
DISCID=9f09af0b
DTITLE=Various Artist - German New Faces
DYEAR=2006
DGENRE=Country
TTITLE0=Katie Grant - Ich Wusste Nicht Das Ich So Stark Sein Kann
TTITLE1=Astrid Lukarski - All I Want Is You
TTITLE2=Sandra Saleschke - Fuer Alle
TTITLE3=Katie Grant - Never Thougt
TTITLE4=Astrid Lukarski and Sandra Saleschke - The Memory Of Him
TTITLE5=Katie Grant - My Memories Back
TTITLE6=Astrid Lukarski - Du Bist Mein Held
TTITLE7=Sandra Saleschke - That Makes You Belive
TTITLE8=Frankie Raydell - Niemand Liebt Dich Immer Noch
TTITLE9=Katie Grant and Larry Schuba - Never Give You Up
TTITLE10=Kati, Sandra Astrid and Frankie - Thank You Fans, Thank You Bands
EXTD=
EXTT0=
EXTT1=
EXTT2=
EXTT3=
EXTT4=
EXTT5=
EXTT6=
EXTT7=
EXTT8=
EXTT9=
EXTT10=
PLAYORDER=
